<svg xmlns="http://www.w3.org/2000/svg" width="130" height="95.542" viewBox="0 0 0 0 130 0 95.542"><path d="M27.411 83.1l5.011-.006-.004-3.861-4.272.005c-8.38.009-10.189-2.126-10.195-7.466-.005-5.011.483-9.283.477-14.87-.005-5.34-1.815-7.967-7.485-8.947v-.328c5.667-.992 7.472-3.623 7.466-8.963-.005-5.094-.503-10.187-.508-14.869-.006-5.34 1.799-7.478 10.179-7.487l4.272-.005-.004-3.861-5.012.006c-10.351.01-15.195 2.48-15.187 10.942.006 5.669.751 10.679.757 15.855.003 3.204-2.212 6.328-11.906 6.42l.005 4.272c9.694.072 11.915 3.192 11.919 6.396.005 5.504-.729 9.859-.723 15.856.009 8.462 4.858 10.922 15.21 10.911z" fill="currentColor" fill-opacity=".847"/><path d="M27.411 83.1l5.011-.006-.004-3.861-4.272.005c-8.38.009-10.189-2.126-10.195-7.466-.005-5.011.483-9.283.477-14.87-.005-5.34-1.815-7.967-7.485-8.947v-.328c5.667-.992 7.472-3.623 7.466-8.963-.005-5.094-.503-10.187-.508-14.869-.006-5.34 1.799-7.478 10.179-7.487l4.272-.005-.004-3.861-5.012.006c-10.351.01-15.195 2.48-15.187 10.942.006 5.669.751 10.679.757 15.855.003 3.204-2.212 6.328-11.906 6.42l.005 4.272c9.694.072 11.915 3.192 11.919 6.396.005 5.504-.729 9.859-.723 15.856.009 8.462 4.858 10.922 15.21 10.911z" stroke="currentColor" fill="none"/><path d="M63.424 94.542c11.88-.013 20.126-7.274 20.116-17.154-.005-4.251-1.384-7.501-3.763-10.125 6.874-3.634 11.371-8.265 11.363-16.269-.024-23.01-35.412-20.596-35.426-34.102-.004-4.252 2.993-7.882 9.996-7.889 5.752-.006 10.382 2.49 14.637 5.737l4.995-6.633C80.336 4.236 73.455.991 65.201 1c-12.505.013-18.875 7.648-18.866 16.277.005 4.252 1.509 7.502 3.888 10.125-6.624 3.509-11.371 8.891-11.363 16.269.024 23.135 35.286 19.971 35.301 34.227.005 4.752-3.993 8.633-10.745 8.64-7.003.008-11.758-2.488-16.139-6.485l-6.247 5.634c5.258 5.496 13.265 8.864 22.394 8.855zM47.738 43.036c-.005-5.127 3.368-8.382 8.492-11.013 10.636 6.116 26.02 8.476 26.032 19.731.006 5.627-2.992 8.382-8.367 10.763-10.636-6.241-26.145-8.476-26.157-19.481z" fill="currentColor" fill-opacity=".847"/><path d="M63.424 94.542c11.88-.013 20.126-7.274 20.116-17.154-.005-4.251-1.384-7.501-3.763-10.125 6.874-3.634 11.371-8.265 11.363-16.269-.024-23.01-35.412-20.596-35.426-34.102-.004-4.252 2.993-7.882 9.996-7.889 5.752-.006 10.382 2.49 14.637 5.737l4.995-6.633C80.336 4.236 73.455.991 65.201 1c-12.505.013-18.875 7.648-18.866 16.277.005 4.252 1.509 7.502 3.888 10.125-6.624 3.509-11.371 8.891-11.363 16.269.024 23.135 35.286 19.971 35.301 34.227.005 4.752-3.993 8.633-10.745 8.64-7.003.008-11.758-2.488-16.139-6.485l-6.247 5.634c5.258 5.496 13.265 8.864 22.394 8.855zM47.738 43.036c-.005-5.127 3.368-8.382 8.492-11.013 10.636 6.116 26.02 8.476 26.032 19.731.006 5.627-2.992 8.382-8.367 10.763-10.636-6.241-26.145-8.476-26.157-19.481z" stroke="currentColor" fill="none"/><g><path d="M97.734 83.026l5.012-.006c10.269-.01 15.113-2.48 15.105-10.942-.007-5.997-.751-10.351-.757-15.855-.003-3.204 2.212-6.328 11.906-6.42l-.005-4.272c-9.694-.072-11.915-3.192-11.919-6.396-.005-5.176.729-10.188.723-15.856-.009-8.462-4.858-10.922-15.128-10.911l-5.011.005.004 3.862 4.19-.005c8.38-.009 10.271 2.125 10.277 7.465.005 4.683-.483 9.777-.477 14.871.005 5.34 1.733 7.967 7.403 8.947v.328c-5.667.992-7.39 3.623-7.384 8.963.006 5.586.503 9.858.508 14.869.006 5.34-1.881 7.478-10.261 7.487l-4.19.004z" fill="currentColor" fill-opacity=".847"/><path d="M97.734 83.026l5.012-.006c10.269-.01 15.113-2.48 15.105-10.942-.007-5.997-.751-10.351-.757-15.855-.003-3.204 2.212-6.328 11.906-6.42l-.005-4.272c-9.694-.072-11.915-3.192-11.919-6.396-.005-5.176.729-10.188.723-15.856-.009-8.462-4.858-10.922-15.128-10.911l-5.011.005.004 3.862 4.19-.005c8.38-.009 10.271 2.125 10.277 7.465.005 4.683-.483 9.777-.477 14.871.005 5.34 1.733 7.967 7.403 8.947v.328c-5.667.992-7.39 3.623-7.384 8.963.006 5.586.503 9.858.508 14.869.006 5.34-1.881 7.478-10.261 7.487l-4.19.004z" stroke="currentColor" fill="none"/></g></svg>